# xmcd CD database file
#
# Track frame offsets:
#	150
#	15204
#	27853
#	41287
#	55067
#	66897
#	79663
#	90800
#	103868
#	116180
#
# Disc length: 1766 seconds
#
# Revision: 4
# Processed by: cddbd v1.5.2PL0 Copyright (c) Steve Scherf et al.
# Submitted via: CDex 1.70beta2
#
DISCID=6b06e40a
DTITLE=Various Artist - Magiczny swiat jazzu Tom1 - Big bandy ..i powstaly zespoly jazzowe CD 2
DYEAR=2009
DGENRE=Jazz
TTITLE0=American patrol Glenn Miller and his Orchestra
TTITLE1=Snibor Duke Ellington and his Orchestra
TTITLE2=Starburst Gene Krupa and his Orchestra
TTITLE3=Lady Day Artie Shaw and his Orchestra
TTITLE4=Forever Blue Benny Carter and his Orchestra
TTITLE5=Avalon Charlie Ventura and his Orchestra 
TTITLE6=Mission to Moscow Glenn Miller and his Orchestra
TTITLE7=Bojangles Ben Webster and his Orchestra 
TTITLE8=In a little spanish town  Tommy Dorsey& his Orchestra 
TTITLE9=Hallelujah Glenn Miller and his Orchestra
EXTD=YEAR: 2009
EXTT0=
EXTT1=
EXTT2=
EXTT3=
EXTT4=
EXTT5=
EXTT6=
EXTT7=
EXTT8=
EXTT9=
PLAYORDER=
